<svg width="21" height="20" viewBox="0 0 21 20" fill="none" xmlns="http://www.w3.org/2000/svg">
<path d="M9.5 7C9.5 6.44772 9.94771 6 10.5 6C11.0523 6 11.5 6.44771 11.5 7V10.2L12.4 9.3C12.7866 8.9134 13.4134 8.9134 13.8 9.3C14.1866 9.6866 14.1866 10.3134 13.8 10.7L10.5 14L7.2 10.7C6.8134 10.3134 6.8134 9.6866 7.2 9.3C7.5866 8.9134 8.2134 8.9134 8.6 9.3L9.5 10.2V7ZM10.5 0C9.11667 0 7.81667 0.262501 6.6 0.7875C5.38333 1.3125 4.325 2.025 3.425 2.925C2.525 3.825 1.8125 4.88333 1.2875 6.1C0.7625 7.31667 0.5 8.61667 0.5 10C0.5 11.3833 0.7625 12.6833 1.2875 13.9C1.8125 15.1167 2.525 16.175 3.425 17.075C4.325 17.975 5.38333 18.6875 6.6 19.2125C7.81667 19.7375 9.11667 20 10.5 20C11.8833 20 13.1833 19.7375 14.4 19.2125C15.6167 18.6875 16.675 17.975 17.575 17.075C18.475 16.175 19.1875 15.1167 19.7125 13.9C20.2375 12.6833 20.5 11.3833 20.5 10C20.5 8.61667 20.2375 7.31667 19.7125 6.1C19.1875 4.88333 18.475 3.825 17.575 2.925C16.675 2.025 15.6167 1.3125 14.4 0.7875C13.1833 0.262501 11.8833 0 10.5 0ZM10.5 2C12.7333 2 14.625 2.775 16.175 4.325C17.725 5.875 18.5 7.76667 18.5 10C18.5 12.2333 17.725 14.125 16.175 15.675C14.625 17.225 12.7333 18 10.5 18C8.26667 18 6.375 17.225 4.825 15.675C3.275 14.125 2.5 12.2333 2.5 10C2.5 7.76667 3.275 5.875 4.825 4.325C6.375 2.775 8.26667 2 10.5 2Z" fill="white"/>
</svg>
